<svg xmlns="http://www.w3.org/2000/svg" viewBox="0 0 512 512">
  <rect width="512" height="512" rx="64" fill="#0f172a"/>
  <path d="M256 96c-88.4 0-160 71.6-160 160s71.6 160 160 160 160-71.6 160-160S344.4 96 256 96zm0 280c-66.3 0-120-53.7-120-120s53.7-120 120-120 120 53.7 120 120-53.7 120-120 120z" fill="#22c55e"/>
  <path d="M256 176c-44.2 0-80 35.8-80 80s35.8 80 80 80 80-35.8 80-80-35.8-80-80-80zm0 120c-22.1 0-40-17.9-40-40s17.9-40 40-40 40 17.9 40 40-17.9 40-40 40z" fill="#4ade80"/>
  <circle cx="256" cy="256" r="24" fill="#fff"/>
  <rect x="244" y="128" width="24" height="48" rx="4" fill="#fff"/>
  <rect x="244" y="336" width="24" height="48" rx="4" fill="#fff"/>
  <rect x="128" y="244" width="48" height="24" rx="4" fill="#fff"/>
  <rect x="336" y="244" width="48" height="24" rx="4" fill="#fff"/>
</svg>
